<svg width="79" height="79" viewBox="0 0 79 79" fill="none" xmlns="http://www.w3.org/2000/svg">
<g filter="url(#filter0_d_1_3672)">
<path d="M4 35.5C4 15.8939 19.8939 0 39.5 0C59.1061 0 75 15.8939 75 35.5C75 55.1061 59.1061 71 39.5 71C19.8939 71 4 55.1061 4 35.5Z" fill="#101112"/>
</g>
<path d="M14 49.5C14 45.3579 17.3579 42 21.5 42C25.6421 42 29 45.3579 29 49.5V49.7273L26.0968 51.3182L21.5 52L16.6613 51.3182L14 49.7273V49.5Z" fill="#FF6200"/>
<path d="M50 49.5C50 45.3579 53.3579 42 57.5 42C61.6421 42 65 45.3579 65 49.5V49.7273L62.0968 51.3182L57.5 52L52.6613 51.3182L50 49.7273V49.5Z" fill="#FF0B53"/>
<path d="M24 51.5C24 42.9396 30.9396 36 39.5 36C48.0604 36 55 42.9396 55 51.5V53L49 56.5L39.5 58L29.5 56.5L24 53V51.5Z" fill="#526AFF"/>
<ellipse cx="39.5" cy="20" rx="7.5" ry="8" fill="#526AFF"/>
<circle cx="57" cy="28" r="6" fill="#FF0B53"/>
<circle cx="22" cy="28" r="6" fill="#FF6200"/>
<path d="M52.7288 43.3893C53.9523 42.5374 55.3873 42.0562 56.8679 42.0011C58.3485 41.9461 59.8141 42.3196 61.0951 43.0784C62.3762 43.8372 63.4204 44.9503 64.1069 46.289C64.7933 47.6276 65.0941 49.137 64.9743 50.6426C61.8362 51.7609 58.5031 52.196 55.1899 51.92C55.1798 48.8976 54.3261 45.938 52.7288 43.392C51.311 41.1247 49.3552 39.2587 47.0424 37.9667C44.7296 36.6746 42.1345 35.9982 39.4973 36C36.8605 35.9986 34.266 36.6752 31.9537 37.9673C29.6414 39.2594 27.686 41.1251 26.2684 43.392M55.1873 51.9173L55.1899 52C55.1899 52.6 55.1586 53.192 55.0932 53.776C50.3471 56.5523 44.969 58.0089 39.4973 58C33.8218 58 28.4942 56.464 23.9014 53.776C23.8342 53.1588 23.8019 52.5382 23.8047 51.9173M23.8047 51.9173C20.4926 52.2033 17.1612 51.7698 14.0255 50.6453C13.9061 49.1401 14.207 47.6312 14.8934 46.293C15.5798 44.9549 16.6236 43.8421 17.9042 43.0834C19.1848 42.3247 20.6499 41.951 22.1301 42.0057C23.6102 42.0603 25.0449 42.5409 26.2684 43.392M23.8047 51.9173C23.8141 48.8952 24.672 45.9383 26.2684 43.392M47.3436 20C47.3436 22.1217 46.517 24.1566 45.0455 25.6568C43.574 27.1571 41.5783 28 39.4973 28C37.4163 28 35.4206 27.1571 33.9491 25.6568C32.4777 24.1566 31.651 22.1217 31.651 20C31.651 17.8783 32.4777 15.8434 33.9491 14.3431C35.4206 12.8429 37.4163 12 39.4973 12C41.5783 12 43.574 12.8429 45.0455 14.3431C46.517 15.8434 47.3436 17.8783 47.3436 20ZM63.0363 28C63.0363 28.7879 62.8841 29.5681 62.5883 30.2961C62.2926 31.024 61.8591 31.6855 61.3127 32.2426C60.7662 32.7998 60.1175 33.2417 59.4035 33.5433C58.6896 33.8448 57.9243 34 57.1515 34C56.3787 34 55.6135 33.8448 54.8995 33.5433C54.1856 33.2417 53.5368 32.7998 52.9904 32.2426C52.4439 31.6855 52.0105 31.024 51.7147 30.2961C51.419 29.5681 51.2668 28.7879 51.2668 28C51.2668 26.4087 51.8868 24.8826 52.9904 23.7573C54.094 22.6321 55.5908 22 57.1515 22C58.7123 22 60.2091 22.6321 61.3127 23.7573C62.4163 24.8826 63.0363 26.4087 63.0363 28ZM27.7278 28C27.7278 28.7879 27.5756 29.5681 27.2799 30.2961C26.9841 31.024 26.5507 31.6855 26.0042 32.2426C25.4578 32.7998 24.8091 33.2417 24.0951 33.5433C23.3811 33.8448 22.6159 34 21.8431 34C21.0703 34 20.3051 33.8448 19.5911 33.5433C18.8771 33.2417 18.2284 32.7998 17.6819 32.2426C17.1355 31.6855 16.702 31.024 16.4063 30.2961C16.1106 29.5681 15.9583 28.7879 15.9583 28C15.9583 26.4087 16.5783 24.8826 17.6819 23.7573C18.7856 22.6321 20.2824 22 21.8431 22C23.4038 22 24.9006 22.6321 26.0042 23.7573C27.1078 24.8826 27.7278 26.4087 27.7278 28Z" stroke="#101112" stroke-linecap="round" stroke-linejoin="round"/>
<defs>
<filter id="filter0_d_1_3672" x="0" y="0" width="79" height="79" filterUnits="userSpaceOnUse" color-interpolation-filters="sRGB">
<feFlood flood-opacity="0" result="BackgroundImageFix"/>
<feColorMatrix in="SourceAlpha" type="matrix" values="0 0 0 0 0 0 0 0 0 0 0 0 0 0 0 0 0 0 127 0" result="hardAlpha"/>
<feOffset dy="4"/>
<feGaussianBlur stdDeviation="2"/>
<feComposite in2="hardAlpha" operator="out"/>
<feColorMatrix type="matrix" values="0 0 0 0 0 0 0 0 0 0 0 0 0 0 0 0 0 0 0.25 0"/>
<feBlend mode="normal" in2="BackgroundImageFix" result="effect1_dropShadow_1_3672"/>
<feBlend mode="normal" in="SourceGraphic" in2="effect1_dropShadow_1_3672" result="shape"/>
</filter>
</defs>
</svg>
